<svg xmlns="http://www.w3.org/2000/svg" width="400" height="400" viewBox="0 0 400 400">
  <path id="Exclusion_1" data-name="Exclusion 1" d="M-1198,656a201.481,201.481,0,0,1-40.307-4.063,198.993,198.993,0,0,1-37.542-11.654,200.018,200.018,0,0,1-33.973-18.44,201.445,201.445,0,0,1-29.6-24.422,201.436,201.436,0,0,1-24.422-29.6,200.01,200.01,0,0,1-18.44-33.973,199,199,0,0,1-11.654-37.542A201.487,201.487,0,0,1-1398,456a201.487,201.487,0,0,1,4.063-40.307,199,199,0,0,1,11.654-37.542,200.011,200.011,0,0,1,18.44-33.973,201.437,201.437,0,0,1,24.422-29.6,201.437,201.437,0,0,1,29.6-24.422,200,200,0,0,1,33.973-18.44,199,199,0,0,1,37.542-11.654A201.477,201.477,0,0,1-1198,256a201.478,201.478,0,0,1,40.307,4.063,199,199,0,0,1,37.542,11.654,200.019,200.019,0,0,1,33.973,18.44,201.435,201.435,0,0,1,29.6,24.422,201.447,201.447,0,0,1,24.422,29.6,200.017,200.017,0,0,1,18.44,33.973,198.993,198.993,0,0,1,11.654,37.542A201.483,201.483,0,0,1-998,456a201.483,201.483,0,0,1-4.063,40.307,199,199,0,0,1-11.654,37.542,200.016,200.016,0,0,1-18.44,33.973,201.452,201.452,0,0,1-24.422,29.6,201.446,201.446,0,0,1-29.6,24.422,200.028,200.028,0,0,1-33.973,18.44,199,199,0,0,1-37.542,11.654A201.481,201.481,0,0,1-1198,656Zm29.343-114.547h0a23.2,23.2,0,0,0,8.015,6.941A23.055,23.055,0,0,0-1150,551a22.858,22.858,0,0,0,8.953-1.807,22.923,22.923,0,0,0,7.311-4.929,22.924,22.924,0,0,0,4.929-7.311A22.858,22.858,0,0,0-1127,528a22.987,22.987,0,0,0-3.11-11.557,23.14,23.14,0,0,0-8.179-8.242,53.52,53.52,0,0,1-5.919,12.615,52.249,52.249,0,0,1-8.975,10.512,60.187,60.187,0,0,1-15.474,10.126Zm-56.079-49.165-35.583,20.48A68.733,68.733,0,0,0-1249.808,528a57.511,57.511,0,0,0,13.616,10.88,62.754,62.754,0,0,0,16.72,6.528,85.863,85.863,0,0,0,19.824,2.176,85.191,85.191,0,0,0,16.473-1.533,66.55,66.55,0,0,0,14.517-4.6h0A22.847,22.847,0,0,1-1173,528a22.853,22.853,0,0,1,1.807-8.953,22.919,22.919,0,0,1,4.929-7.311,22.924,22.924,0,0,1,7.311-4.929A22.854,22.854,0,0,1-1150,505a22.974,22.974,0,0,1,11.711,3.2,71.346,71.346,0,0,0,3.154-21.8V364.8l-41.075,23.826.119,97.774a27.17,27.17,0,0,1-1.456,9.3,16.543,16.543,0,0,1-4.369,6.64,18.769,18.769,0,0,1-7.281,3.984,35.33,35.33,0,0,1-10.194,1.328,38.2,38.2,0,0,1-8.672-.9,20.644,20.644,0,0,1-6.56-2.688C-1218.276,501.686-1221.678,497.724-1224.736,492.288Z" transform="translate(1398 -256)" fill="#40a355"/>
</svg>
